<?xml version="1.0" encoding="utf-8" standalone="no"?>
<!DOCTYPE svg PUBLIC "-//W3C//DTD SVG 1.1//EN"
  "http://www.w3.org/Graphics/SVG/1.1/DTD/svg11.dtd">
<!-- Created with matplotlib (https://matplotlib.org/) -->
<svg height="523.558125pt" version="1.1" viewBox="0 0 722.8125 523.558125" width="722.8125pt" xmlns="http://www.w3.org/2000/svg" xmlns:xlink="http://www.w3.org/1999/xlink">
 <metadata>
  <rdf:RDF xmlns:cc="http://creativecommons.org/ns#" xmlns:dc="http://purl.org/dc/elements/1.1/" xmlns:rdf="http://www.w3.org/1999/02/22-rdf-syntax-ns#">
   <cc:Work>
    <dc:type rdf:resource="http://purl.org/dc/dcmitype/StillImage"/>
    <dc:date>2020-12-12T21:05:07.168655</dc:date>
    <dc:format>image/svg+xml</dc:format>
    <dc:creator>
     <cc:Agent>
      <dc:title>Matplotlib v3.3.2, https://matplotlib.org/</dc:title>
     </cc:Agent>
    </dc:creator>
   </cc:Work>
  </rdf:RDF>
 </metadata>
 <defs>
  <style type="text/css">*{stroke-linecap:butt;stroke-linejoin:round;}</style>
 </defs>
 <g id="figure_1">
  <g id="patch_1">
   <path d="M 0 523.558125 
L 722.8125 523.558125 
L 722.8125 0 
L 0 0 
z
" style="fill:none;"/>
  </g>
  <g id="axes_1">
   <g id="patch_2">
    <path d="M 46.0125 499.68 
L 350.376136 499.68 
L 350.376136 64.8 
L 46.0125 64.8 
z
" style="fill:#ffffff;"/>
   </g>
   <g id="matplotlib.axis_1">
    <g id="xtick_1">
     <g id="line2d_1">
      <defs>
       <path d="M 0 0 
L 0 3.5 
" id="mf26e96a794" style="stroke:#000000;stroke-width:0.8;"/>
      </defs>
      <g>
       <use style="stroke:#000000;stroke-width:0.8;" x="53.271299" xlink:href="#mf26e96a794" y="499.68"/>
      </g>
     </g>
     <g id="text_1">
      <!-- 41800 -->
      <g transform="translate(37.365049 514.278437)scale(0.1 -0.1)">
       <defs>
        <path d="M 37.796875 64.3125 
L 12.890625 25.390625 
L 37.796875 25.390625 
z
M 35.203125 72.90625 
L 47.609375 72.90625 
L 47.609375 25.390625 
L 58.015625 25.390625 
L 58.015625 17.1875 
L 47.609375 17.1875 
L 47.609375 0 
L 37.796875 0 
L 37.796875 17.1875 
L 4.890625 17.1875 
L 4.890625 26.703125 
z
" id="DejaVuSans-52"/>
        <path d="M 12.40625 8.296875 
L 28.515625 8.296875 
L 28.515625 63.921875 
L 10.984375 60.40625 
L 10.984375 69.390625 
L 28.421875 72.90625 
L 38.28125 72.90625 
L 38.28125 8.296875 
L 54.390625 8.296875 
L 54.390625 0 
L 12.40625 0 
z
" id="DejaVuSans-49"/>
        <path d="M 31.78125 34.625 
Q 24.75 34.625 20.71875 30.859375 
Q 16.703125 27.09375 16.703125 20.515625 
Q 16.703125 13.921875 20.71875 10.15625 
Q 24.75 6.390625 31.78125 6.390625 
Q 38.8125 6.390625 42.859375 10.171875 
Q 46.921875 13.96875 46.921875 20.515625 
Q 46.921875 27.09375 42.890625 30.859375 
Q 38.875 34.625 31.78125 34.625 
z
M 21.921875 38.8125 
Q 15.578125 40.375 12.03125 44.71875 
Q 8.5 49.078125 8.5 55.328125 
Q 8.5 64.0625 14.71875 69.140625 
Q 20.953125 74.21875 31.78125 74.21875 
Q 42.671875 74.21875 48.875 69.140625 
Q 55.078125 64.0625 55.078125 55.328125 
Q 55.078125 49.078125 51.53125 44.71875 
Q 48 40.375 41.703125 38.8125 
Q 48.828125 37.15625 52.796875 32.3125 
Q 56.78125 27.484375 56.78125 20.515625 
Q 56.78125 9.90625 50.3125 4.234375 
Q 43.84375 -1.421875 31.78125 -1.421875 
Q 19.734375 -1.421875 13.25 4.234375 
Q 6.78125 9.90625 6.78125 20.515625 
Q 6.78125 27.484375 10.78125 32.3125 
Q 14.796875 37.15625 21.921875 38.8125 
z
M 18.3125 54.390625 
Q 18.3125 48.734375 21.84375 45.5625 
Q 25.390625 42.390625 31.78125 42.390625 
Q 38.140625 42.390625 41.71875 45.5625 
Q 45.3125 48.734375 45.3125 54.390625 
Q 45.3125 60.0625 41.71875 63.234375 
Q 38.140625 66.40625 31.78125 66.40625 
Q 25.390625 66.40625 21.84375 63.234375 
Q 18.3125 60.0625 18.3125 54.390625 
z
" id="DejaVuSans-56"/>
        <path d="M 31.78125 66.40625 
Q 24.171875 66.40625 20.328125 58.90625 
Q 16.5 51.421875 16.5 36.375 
Q 16.5 21.390625 20.328125 13.890625 
Q 24.171875 6.390625 31.78125 6.390625 
Q 39.453125 6.390625 43.28125 13.890625 
Q 47.125 21.390625 47.125 36.375 
Q 47.125 51.421875 43.28125 58.90625 
Q 39.453125 66.40625 31.78125 66.40625 
z
M 31.78125 74.21875 
Q 44.046875 74.21875 50.515625 64.515625 
Q 56.984375 54.828125 56.984375 36.375 
Q 56.984375 17.96875 50.515625 8.265625 
Q 44.046875 -1.421875 31.78125 -1.421875 
Q 19.53125 -1.421875 13.0625 8.265625 
Q 6.59375 17.96875 6.59375 36.375 
Q 6.59375 54.828125 13.0625 64.515625 
Q 19.53125 74.21875 31.78125 74.21875 
z
" id="DejaVuSans-48"/>
       </defs>
       <use xlink:href="#DejaVuSans-52"/>
       <use x="63.623047" xlink:href="#DejaVuSans-49"/>
       <use x="127.246094" xlink:href="#DejaVuSans-56"/>
       <use x="190.869141" xlink:href="#DejaVuSans-48"/>
       <use x="254.492188" xlink:href="#DejaVuSans-48"/>
      </g>
     </g>
    </g>
    <g id="xtick_2">
     <g id="line2d_2">
      <g>
       <use style="stroke:#000000;stroke-width:0.8;" x="89.691743" xlink:href="#mf26e96a794" y="499.68"/>
      </g>
     </g>
     <g id="text_2">
      <!-- 42000 -->
      <g transform="translate(73.785493 514.278437)scale(0.1 -0.1)">
       <defs>
        <path d="M 19.1875 8.296875 
L 53.609375 8.296875 
L 53.609375 0 
L 7.328125 0 
L 7.328125 8.296875 
Q 12.9375 14.109375 22.625 23.890625 
Q 32.328125 33.6875 34.8125 36.53125 
Q 39.546875 41.84375 41.421875 45.53125 
Q 43.3125 49.21875 43.3125 52.78125 
Q 43.3125 58.59375 39.234375 62.25 
Q 35.15625 65.921875 28.609375 65.921875 
Q 23.96875 65.921875 18.8125 64.3125 
Q 13.671875 62.703125 7.8125 59.421875 
L 7.8125 69.390625 
Q 13.765625 71.78125 18.9375 73 
Q 24.125 74.21875 28.421875 74.21875 
Q 39.75 74.21875 46.484375 68.546875 
Q 53.21875 62.890625 53.21875 53.421875 
Q 53.21875 48.921875 51.53125 44.890625 
Q 49.859375 40.875 45.40625 35.40625 
Q 44.1875 33.984375 37.640625 27.21875 
Q 31.109375 20.453125 19.1875 8.296875 
z
" id="DejaVuSans-50"/>
       </defs>
       <use xlink:href="#DejaVuSans-52"/>
       <use x="63.623047" xlink:href="#DejaVuSans-50"/>
       <use x="127.246094" xlink:href="#DejaVuSans-48"/>
       <use x="190.869141" xlink:href="#DejaVuSans-48"/>
       <use x="254.492188" xlink:href="#DejaVuSans-48"/>
      </g>
     </g>
    </g>
    <g id="xtick_3">
     <g id="line2d_3">
      <g>
       <use style="stroke:#000000;stroke-width:0.8;" x="126.112187" xlink:href="#mf26e96a794" y="499.68"/>
      </g>
     </g>
     <g id="text_3">
      <!-- 42200 -->
      <g transform="translate(110.205937 514.278437)scale(0.1 -0.1)">
       <use xlink:href="#DejaVuSans-52"/>
       <use x="63.623047" xlink:href="#DejaVuSans-50"/>
       <use x="127.246094" xlink:href="#DejaVuSans-50"/>
       <use x="190.869141" xlink:href="#DejaVuSans-48"/>
       <use x="254.492188" xlink:href="#DejaVuSans-48"/>
      </g>
     </g>
    </g>
    <g id="xtick_4">
     <g id="line2d_4">
      <g>
       <use style="stroke:#000000;stroke-width:0.8;" x="162.532631" xlink:href="#mf26e96a794" y="499.68"/>
      </g>
     </g>
     <g id="text_4">
      <!-- 42400 -->
      <g transform="translate(146.626381 514.278437)scale(0.1 -0.1)">
       <use xlink:href="#DejaVuSans-52"/>
       <use x="63.623047" xlink:href="#DejaVuSans-50"/>
       <use x="127.246094" xlink:href="#DejaVuSans-52"/>
       <use x="190.869141" xlink:href="#DejaVuSans-48"/>
       <use x="254.492188" xlink:href="#DejaVuSans-48"/>
      </g>
     </g>
    </g>
    <g id="xtick_5">
     <g id="line2d_5">
      <g>
       <use style="stroke:#000000;stroke-width:0.8;" x="198.953074" xlink:href="#mf26e96a794" y="499.68"/>
      </g>
     </g>
     <g id="text_5">
      <!-- 42600 -->
      <g transform="translate(183.046824 514.278437)scale(0.1 -0.1)">
       <defs>
        <path d="M 33.015625 40.375 
Q 26.375 40.375 22.484375 35.828125 
Q 18.609375 31.296875 18.609375 23.390625 
Q 18.609375 15.53125 22.484375 10.953125 
Q 26.375 6.390625 33.015625 6.390625 
Q 39.65625 6.390625 43.53125 10.953125 
Q 47.40625 15.53125 47.40625 23.390625 
Q 47.40625 31.296875 43.53125 35.828125 
Q 39.65625 40.375 33.015625 40.375 
z
M 52.59375 71.296875 
L 52.59375 62.3125 
Q 48.875 64.0625 45.09375 64.984375 
Q 41.3125 65.921875 37.59375 65.921875 
Q 27.828125 65.921875 22.671875 59.328125 
Q 17.53125 52.734375 16.796875 39.40625 
Q 19.671875 43.65625 24.015625 45.921875 
Q 28.375 48.1875 33.59375 48.1875 
Q 44.578125 48.1875 50.953125 41.515625 
Q 57.328125 34.859375 57.328125 23.390625 
Q 57.328125 12.15625 50.6875 5.359375 
Q 44.046875 -1.421875 33.015625 -1.421875 
Q 20.359375 -1.421875 13.671875 8.265625 
Q 6.984375 17.96875 6.984375 36.375 
Q 6.984375 53.65625 15.1875 63.9375 
Q 23.390625 74.21875 37.203125 74.21875 
Q 40.921875 74.21875 44.703125 73.484375 
Q 48.484375 72.75 52.59375 71.296875 
z
" id="DejaVuSans-54"/>
       </defs>
       <use xlink:href="#DejaVuSans-52"/>
       <use x="63.623047" xlink:href="#DejaVuSans-50"/>
       <use x="127.246094" xlink:href="#DejaVuSans-54"/>
       <use x="190.869141" xlink:href="#DejaVuSans-48"/>
       <use x="254.492188" xlink:href="#DejaVuSans-48"/>
      </g>
     </g>
    </g>
    <g id="xtick_6">
     <g id="line2d_6">
      <g>
       <use style="stroke:#000000;stroke-width:0.8;" x="235.373518" xlink:href="#mf26e96a794" y="499.68"/>
      </g>
     </g>
     <g id="text_6">
      <!-- 42800 -->
      <g transform="translate(219.467268 514.278437)scale(0.1 -0.1)">
       <use xlink:href="#DejaVuSans-52"/>
       <use x="63.623047" xlink:href="#DejaVuSans-50"/>
       <use x="127.246094" xlink:href="#DejaVuSans-56"/>
       <use x="190.869141" xlink:href="#DejaVuSans-48"/>
       <use x="254.492188" xlink:href="#DejaVuSans-48"/>
      </g>
     </g>
    </g>
    <g id="xtick_7">
     <g id="line2d_7">
      <g>
       <use style="stroke:#000000;stroke-width:0.8;" x="271.793962" xlink:href="#mf26e96a794" y="499.68"/>
      </g>
     </g>
     <g id="text_7">
      <!-- 43000 -->
      <g transform="translate(255.887712 514.278437)scale(0.1 -0.1)">
       <defs>
        <path d="M 40.578125 39.3125 
Q 47.65625 37.796875 51.625 33 
Q 55.609375 28.21875 55.609375 21.1875 
Q 55.609375 10.40625 48.1875 4.484375 
Q 40.765625 -1.421875 27.09375 -1.421875 
Q 22.515625 -1.421875 17.65625 -0.515625 
Q 12.796875 0.390625 7.625 2.203125 
L 7.625 11.71875 
Q 11.71875 9.328125 16.59375 8.109375 
Q 21.484375 6.890625 26.8125 6.890625 
Q 36.078125 6.890625 40.9375 10.546875 
Q 45.796875 14.203125 45.796875 21.1875 
Q 45.796875 27.640625 41.28125 31.265625 
Q 36.765625 34.90625 28.71875 34.90625 
L 20.21875 34.90625 
L 20.21875 43.015625 
L 29.109375 43.015625 
Q 36.375 43.015625 40.234375 45.921875 
Q 44.09375 48.828125 44.09375 54.296875 
Q 44.09375 59.90625 40.109375 62.90625 
Q 36.140625 65.921875 28.71875 65.921875 
Q 24.65625 65.921875 20.015625 65.03125 
Q 15.375 64.15625 9.8125 62.3125 
L 9.8125 71.09375 
Q 15.4375 72.65625 20.34375 73.4375 
Q 25.25 74.21875 29.59375 74.21875 
Q 40.828125 74.21875 47.359375 69.109375 
Q 53.90625 64.015625 53.90625 55.328125 
Q 53.90625 49.265625 50.4375 45.09375 
Q 46.96875 40.921875 40.578125 39.3125 
z
" id="DejaVuSans-51"/>
       </defs>
       <use xlink:href="#DejaVuSans-52"/>
       <use x="63.623047" xlink:href="#DejaVuSans-51"/>
       <use x="127.246094" xlink:href="#DejaVuSans-48"/>
       <use x="190.869141" xlink:href="#DejaVuSans-48"/>
       <use x="254.492188" xlink:href="#DejaVuSans-48"/>
      </g>
     </g>
    </g>
    <g id="xtick_8">
     <g id="line2d_8">
      <g>
       <use style="stroke:#000000;stroke-width:0.8;" x="308.214406" xlink:href="#mf26e96a794" y="499.68"/>
      </g>
     </g>
     <g id="text_8">
      <!-- 43200 -->
      <g transform="translate(292.308156 514.278437)scale(0.1 -0.1)">
       <use xlink:href="#DejaVuSans-52"/>
       <use x="63.623047" xlink:href="#DejaVuSans-51"/>
       <use x="127.246094" xlink:href="#DejaVuSans-50"/>
       <use x="190.869141" xlink:href="#DejaVuSans-48"/>
       <use x="254.492188" xlink:href="#DejaVuSans-48"/>
      </g>
     </g>
    </g>
    <g id="xtick_9">
     <g id="line2d_9">
      <g>
       <use style="stroke:#000000;stroke-width:0.8;" x="344.634849" xlink:href="#mf26e96a794" y="499.68"/>
      </g>
     </g>
     <g id="text_9">
      <!-- 43400 -->
      <g transform="translate(328.728599 514.278437)scale(0.1 -0.1)">
       <use xlink:href="#DejaVuSans-52"/>
       <use x="63.623047" xlink:href="#DejaVuSans-51"/>
       <use x="127.246094" xlink:href="#DejaVuSans-52"/>
       <use x="190.869141" xlink:href="#DejaVuSans-48"/>
       <use x="254.492188" xlink:href="#DejaVuSans-48"/>
      </g>
     </g>
    </g>
   </g>
   <g id="matplotlib.axis_2">
    <g id="ytick_1">
     <g id="line2d_10">
      <defs>
       <path d="M 0 0 
L -3.5 0 
" id="md35f00f346" style="stroke:#000000;stroke-width:0.8;"/>
      </defs>
      <g>
       <use style="stroke:#000000;stroke-width:0.8;" x="46.0125" xlink:href="#md35f00f346" y="480.782498"/>
      </g>
     </g>
     <g id="text_10">
      <!-- 11000 -->
      <g transform="translate(7.2 484.581717)scale(0.1 -0.1)">
       <use xlink:href="#DejaVuSans-49"/>
       <use x="63.623047" xlink:href="#DejaVuSans-49"/>
       <use x="127.246094" xlink:href="#DejaVuSans-48"/>
       <use x="190.869141" xlink:href="#DejaVuSans-48"/>
       <use x="254.492188" xlink:href="#DejaVuSans-48"/>
      </g>
     </g>
    </g>
    <g id="ytick_2">
     <g id="line2d_11">
      <g>
       <use style="stroke:#000000;stroke-width:0.8;" x="46.0125" xlink:href="#md35f00f346" y="420.567418"/>
      </g>
     </g>
     <g id="text_11">
      <!-- 11250 -->
      <g transform="translate(7.2 424.366637)scale(0.1 -0.1)">
       <defs>
        <path d="M 10.796875 72.90625 
L 49.515625 72.90625 
L 49.515625 64.59375 
L 19.828125 64.59375 
L 19.828125 46.734375 
Q 21.96875 47.46875 24.109375 47.828125 
Q 26.265625 48.1875 28.421875 48.1875 
Q 40.625 48.1875 47.75 41.5 
Q 54.890625 34.8125 54.890625 23.390625 
Q 54.890625 11.625 47.5625 5.09375 
Q 40.234375 -1.421875 26.90625 -1.421875 
Q 22.3125 -1.421875 17.546875 -0.640625 
Q 12.796875 0.140625 7.71875 1.703125 
L 7.71875 11.625 
Q 12.109375 9.234375 16.796875 8.0625 
Q 21.484375 6.890625 26.703125 6.890625 
Q 35.15625 6.890625 40.078125 11.328125 
Q 45.015625 15.765625 45.015625 23.390625 
Q 45.015625 31 40.078125 35.4375 
Q 35.15625 39.890625 26.703125 39.890625 
Q 22.75 39.890625 18.8125 39.015625 
Q 14.890625 38.140625 10.796875 36.28125 
z
" id="DejaVuSans-53"/>
       </defs>
       <use xlink:href="#DejaVuSans-49"/>
       <use x="63.623047" xlink:href="#DejaVuSans-49"/>
       <use x="127.246094" xlink:href="#DejaVuSans-50"/>
       <use x="190.869141" xlink:href="#DejaVuSans-53"/>
       <use x="254.492188" xlink:href="#DejaVuSans-48"/>
      </g>
     </g>
    </g>
    <g id="ytick_3">
     <g id="line2d_12">
      <g>
       <use style="stroke:#000000;stroke-width:0.8;" x="46.0125" xlink:href="#md35f00f346" y="360.352338"/>
      </g>
     </g>
     <g id="text_12">
      <!-- 11500 -->
      <g transform="translate(7.2 364.151557)scale(0.1 -0.1)">
       <use xlink:href="#DejaVuSans-49"/>
       <use x="63.623047" xlink:href="#DejaVuSans-49"/>
       <use x="127.246094" xlink:href="#DejaVuSans-53"/>
       <use x="190.869141" xlink:href="#DejaVuSans-48"/>
       <use x="254.492188" xlink:href="#DejaVuSans-48"/>
      </g>
     </g>
    </g>
    <g id="ytick_4">
     <g id="line2d_13">
      <g>
       <use style="stroke:#000000;stroke-width:0.8;" x="46.0125" xlink:href="#md35f00f346" y="300.137258"/>
      </g>
     </g>
     <g id="text_13">
      <!-- 11750 -->
      <g transform="translate(7.2 303.936477)scale(0.1 -0.1)">
       <defs>
        <path d="M 8.203125 72.90625 
L 55.078125 72.90625 
L 55.078125 68.703125 
L 28.609375 0 
L 18.3125 0 
L 43.21875 64.59375 
L 8.203125 64.59375 
z
" id="DejaVuSans-55"/>
       </defs>
       <use xlink:href="#DejaVuSans-49"/>
       <use x="63.623047" xlink:href="#DejaVuSans-49"/>
       <use x="127.246094" xlink:href="#DejaVuSans-55"/>
       <use x="190.869141" xlink:href="#DejaVuSans-53"/>
       <use x="254.492188" xlink:href="#DejaVuSans-48"/>
      </g>
     </g>
    </g>
    <g id="ytick_5">
     <g id="line2d_14">
      <g>
       <use style="stroke:#000000;stroke-width:0.8;" x="46.0125" xlink:href="#md35f00f346" y="239.922179"/>
      </g>
     </g>
     <g id="text_14">
      <!-- 12000 -->
      <g transform="translate(7.2 243.721397)scale(0.1 -0.1)">
       <use xlink:href="#DejaVuSans-49"/>
       <use x="63.623047" xlink:href="#DejaVuSans-50"/>
       <use x="127.246094" xlink:href="#DejaVuSans-48"/>
       <use x="190.869141" xlink:href="#DejaVuSans-48"/>
       <use x="254.492188" xlink:href="#DejaVuSans-48"/>
      </g>
     </g>
    </g>
    <g id="ytick_6">
     <g id="line2d_15">
      <g>
       <use style="stroke:#000000;stroke-width:0.8;" x="46.0125" xlink:href="#md35f00f346" y="179.707099"/>
      </g>
     </g>
     <g id="text_15">
      <!-- 12250 -->
      <g transform="translate(7.2 183.506318)scale(0.1 -0.1)">
       <use xlink:href="#DejaVuSans-49"/>
       <use x="63.623047" xlink:href="#DejaVuSans-50"/>
       <use x="127.246094" xlink:href="#DejaVuSans-50"/>
       <use x="190.869141" xlink:href="#DejaVuSans-53"/>
       <use x="254.492188" xlink:href="#DejaVuSans-48"/>
      </g>
     </g>
    </g>
    <g id="ytick_7">
     <g id="line2d_16">
      <g>
       <use style="stroke:#000000;stroke-width:0.8;" x="46.0125" xlink:href="#md35f00f346" y="119.492019"/>
      </g>
     </g>
     <g id="text_16">
      <!-- 12500 -->
      <g transform="translate(7.2 123.291238)scale(0.1 -0.1)">
       <use xlink:href="#DejaVuSans-49"/>
       <use x="63.623047" xlink:href="#DejaVuSans-50"/>
       <use x="127.246094" xlink:href="#DejaVuSans-53"/>
       <use x="190.869141" xlink:href="#DejaVuSans-48"/>
       <use x="254.492188" xlink:href="#DejaVuSans-48"/>
      </g>
     </g>
    </g>
   </g>
   <g id="line2d_17">
    <path clip-path="url(#p1db8480f23)" d="M 108.357221 479.912727 
L 59.847211 308.366661 
L 208.412265 295.253141 
L 238.003875 299.869639 
L 245.08563 409.126553 
L 258.945631 406.048888 
L 271.84455 378.684482 
L 336.541426 170.808659 
L 219.23724 150.134799 
L 212.357819 282.607974 
L 157.777741 454.622394 
L 268.758919 380.424024 
L 276.548851 246.412015 
L 252.774405 138.359403 
L 209.980384 276.787199 
L 214.735273 314.455056 
L 109.065398 357.609204 
L 251.003953 448.667797 
L 296.681271 343.625938 
L 298.755215 337.470608 
L 317.82536 369.719131 
L 324.704781 248.820619 
L 168.602699 167.664083 
L 266.937897 84.567273 
L 332.747617 146.789514 
L 259.653808 436.624781 
L 243.011686 354.999892 
L 125.302852 225.872001 
L 176.645553 203.926953 
L 300.272728 154.216056 
L 299.109295 340.280653 
L 305.88754 363.831421 
L 250.751031 291.640236 
L 306.241638 152.409604 
L 299.109295 336.266306 
L 245.439728 359.616366 
L 219.439574 443.24844 
L 100.112033 375.205399 
L 108.357221 479.912727 
" style="fill:none;stroke:#0000ff;stroke-dasharray:5.55,2.4;stroke-dashoffset:0;stroke-width:1.5;"/>
    <defs>
     <path d="M 0 3 
C 0.795609 3 1.55874 2.683901 2.12132 2.12132 
C 2.683901 1.55874 3 0.795609 3 0 
C 3 -0.795609 2.683901 -1.55874 2.12132 -2.12132 
C 1.55874 -2.683901 0.795609 -3 0 -3 
C -0.795609 -3 -1.55874 -2.683901 -2.12132 -2.12132 
C -2.683901 -1.55874 -3 -0.795609 -3 0 
C -3 0.795609 -2.683901 1.55874 -2.12132 2.12132 
C -1.55874 2.683901 -0.795609 3 0 3 
z
" id="m1ce77f8192" style="stroke:#0000ff;"/>
    </defs>
    <g clip-path="url(#p1db8480f23)">
     <use style="fill:#0000ff;stroke:#0000ff;" x="108.357221" xlink:href="#m1ce77f8192" y="479.912727"/>
     <use style="fill:#0000ff;stroke:#0000ff;" x="59.847211" xlink:href="#m1ce77f8192" y="308.366661"/>
     <use style="fill:#0000ff;stroke:#0000ff;" x="208.412265" xlink:href="#m1ce77f8192" y="295.253141"/>
     <use style="fill:#0000ff;stroke:#0000ff;" x="238.003875" xlink:href="#m1ce77f8192" y="299.869639"/>
     <use style="fill:#0000ff;stroke:#0000ff;" x="245.08563" xlink:href="#m1ce77f8192" y="409.126553"/>
     <use style="fill:#0000ff;stroke:#0000ff;" x="258.945631" xlink:href="#m1ce77f8192" y="406.048888"/>
     <use style="fill:#0000ff;stroke:#0000ff;" x="271.84455" xlink:href="#m1ce77f8192" y="378.684482"/>
     <use style="fill:#0000ff;stroke:#0000ff;" x="336.541426" xlink:href="#m1ce77f8192" y="170.808659"/>
     <use style="fill:#0000ff;stroke:#0000ff;" x="219.23724" xlink:href="#m1ce77f8192" y="150.134799"/>
     <use style="fill:#0000ff;stroke:#0000ff;" x="212.357819" xlink:href="#m1ce77f8192" y="282.607974"/>
     <use style="fill:#0000ff;stroke:#0000ff;" x="157.777741" xlink:href="#m1ce77f8192" y="454.622394"/>
     <use style="fill:#0000ff;stroke:#0000ff;" x="268.758919" xlink:href="#m1ce77f8192" y="380.424024"/>
     <use style="fill:#0000ff;stroke:#0000ff;" x="276.548851" xlink:href="#m1ce77f8192" y="246.412015"/>
     <use style="fill:#0000ff;stroke:#0000ff;" x="252.774405" xlink:href="#m1ce77f8192" y="138.359403"/>
     <use style="fill:#0000ff;stroke:#0000ff;" x="209.980384" xlink:href="#m1ce77f8192" y="276.787199"/>
     <use style="fill:#0000ff;stroke:#0000ff;" x="214.735273" xlink:href="#m1ce77f8192" y="314.455056"/>
     <use style="fill:#0000ff;stroke:#0000ff;" x="109.065398" xlink:href="#m1ce77f8192" y="357.609204"/>
     <use style="fill:#0000ff;stroke:#0000ff;" x="251.003953" xlink:href="#m1ce77f8192" y="448.667797"/>
     <use style="fill:#0000ff;stroke:#0000ff;" x="296.681271" xlink:href="#m1ce77f8192" y="343.625938"/>
     <use style="fill:#0000ff;stroke:#0000ff;" x="298.755215" xlink:href="#m1ce77f8192" y="337.470608"/>
     <use style="fill:#0000ff;stroke:#0000ff;" x="317.82536" xlink:href="#m1ce77f8192" y="369.719131"/>
     <use style="fill:#0000ff;stroke:#0000ff;" x="324.704781" xlink:href="#m1ce77f8192" y="248.820619"/>
     <use style="fill:#0000ff;stroke:#0000ff;" x="168.602699" xlink:href="#m1ce77f8192" y="167.664083"/>
     <use style="fill:#0000ff;stroke:#0000ff;" x="266.937897" xlink:href="#m1ce77f8192" y="84.567273"/>
     <use style="fill:#0000ff;stroke:#0000ff;" x="332.747617" xlink:href="#m1ce77f8192" y="146.789514"/>
     <use style="fill:#0000ff;stroke:#0000ff;" x="259.653808" xlink:href="#m1ce77f8192" y="436.624781"/>
     <use style="fill:#0000ff;stroke:#0000ff;" x="243.011686" xlink:href="#m1ce77f8192" y="354.999892"/>
     <use style="fill:#0000ff;stroke:#0000ff;" x="125.302852" xlink:href="#m1ce77f8192" y="225.872001"/>
     <use style="fill:#0000ff;stroke:#0000ff;" x="176.645553" xlink:href="#m1ce77f8192" y="203.926953"/>
     <use style="fill:#0000ff;stroke:#0000ff;" x="300.272728" xlink:href="#m1ce77f8192" y="154.216056"/>
     <use style="fill:#0000ff;stroke:#0000ff;" x="299.109295" xlink:href="#m1ce77f8192" y="340.280653"/>
     <use style="fill:#0000ff;stroke:#0000ff;" x="305.88754" xlink:href="#m1ce77f8192" y="363.831421"/>
     <use style="fill:#0000ff;stroke:#0000ff;" x="250.751031" xlink:href="#m1ce77f8192" y="291.640236"/>
     <use style="fill:#0000ff;stroke:#0000ff;" x="306.241638" xlink:href="#m1ce77f8192" y="152.409604"/>
     <use style="fill:#0000ff;stroke:#0000ff;" x="299.109295" xlink:href="#m1ce77f8192" y="336.266306"/>
     <use style="fill:#0000ff;stroke:#0000ff;" x="245.439728" xlink:href="#m1ce77f8192" y="359.616366"/>
     <use style="fill:#0000ff;stroke:#0000ff;" x="219.439574" xlink:href="#m1ce77f8192" y="443.24844"/>
     <use style="fill:#0000ff;stroke:#0000ff;" x="100.112033" xlink:href="#m1ce77f8192" y="375.205399"/>
     <use style="fill:#0000ff;stroke:#0000ff;" x="108.357221" xlink:href="#m1ce77f8192" y="479.912727"/>
    </g>
   </g>
   <g id="patch_3">
    <path d="M 46.0125 499.68 
L 46.0125 64.8 
" style="fill:none;stroke:#000000;stroke-linecap:square;stroke-linejoin:miter;stroke-width:0.8;"/>
   </g>
   <g id="patch_4">
    <path d="M 350.376136 499.68 
L 350.376136 64.8 
" style="fill:none;stroke:#000000;stroke-linecap:square;stroke-linejoin:miter;stroke-width:0.8;"/>
   </g>
   <g id="patch_5">
    <path d="M 46.0125 499.68 
L 350.376136 499.68 
" style="fill:none;stroke:#000000;stroke-linecap:square;stroke-linejoin:miter;stroke-width:0.8;"/>
   </g>
   <g id="patch_6">
    <path d="M 46.0125 64.8 
L 350.376136 64.8 
" style="fill:none;stroke:#000000;stroke-linecap:square;stroke-linejoin:miter;stroke-width:0.8;"/>
   </g>
  </g>
  <g id="axes_2">
   <g id="patch_7">
    <path d="M 411.248864 499.68 
L 715.6125 499.68 
L 715.6125 64.8 
L 411.248864 64.8 
z
" style="fill:#ffffff;"/>
   </g>
   <g id="matplotlib.axis_3">
    <g id="xtick_10">
     <g id="line2d_18">
      <g>
       <use style="stroke:#000000;stroke-width:0.8;" x="425.083574" xlink:href="#mf26e96a794" y="499.68"/>
      </g>
     </g>
     <g id="text_17">
      <!-- 0 -->
      <g transform="translate(421.902324 514.278437)scale(0.1 -0.1)">
       <use xlink:href="#DejaVuSans-48"/>
      </g>
     </g>
    </g>
    <g id="xtick_11">
     <g id="line2d_19">
      <g>
       <use style="stroke:#000000;stroke-width:0.8;" x="471.199277" xlink:href="#mf26e96a794" y="499.68"/>
      </g>
     </g>
     <g id="text_18">
      <!-- 10 -->
      <g transform="translate(464.836777 514.278437)scale(0.1 -0.1)">
       <use xlink:href="#DejaVuSans-49"/>
       <use x="63.623047" xlink:href="#DejaVuSans-48"/>
      </g>
     </g>
    </g>
    <g id="xtick_12">
     <g id="line2d_20">
      <g>
       <use style="stroke:#000000;stroke-width:0.8;" x="517.314979" xlink:href="#mf26e96a794" y="499.68"/>
      </g>
     </g>
     <g id="text_19">
      <!-- 20 -->
      <g transform="translate(510.952479 514.278437)scale(0.1 -0.1)">
       <use xlink:href="#DejaVuSans-50"/>
       <use x="63.623047" xlink:href="#DejaVuSans-48"/>
      </g>
     </g>
    </g>
    <g id="xtick_13">
     <g id="line2d_21">
      <g>
       <use style="stroke:#000000;stroke-width:0.8;" x="563.430682" xlink:href="#mf26e96a794" y="499.68"/>
      </g>
     </g>
     <g id="text_20">
      <!-- 30 -->
      <g transform="translate(557.068182 514.278437)scale(0.1 -0.1)">
       <use xlink:href="#DejaVuSans-51"/>
       <use x="63.623047" xlink:href="#DejaVuSans-48"/>
      </g>
     </g>
    </g>
    <g id="xtick_14">
     <g id="line2d_22">
      <g>
       <use style="stroke:#000000;stroke-width:0.8;" x="609.546384" xlink:href="#mf26e96a794" y="499.68"/>
      </g>
     </g>
     <g id="text_21">
      <!-- 40 -->
      <g transform="translate(603.183884 514.278437)scale(0.1 -0.1)">
       <use xlink:href="#DejaVuSans-52"/>
       <use x="63.623047" xlink:href="#DejaVuSans-48"/>
      </g>
     </g>
    </g>
    <g id="xtick_15">
     <g id="line2d_23">
      <g>
       <use style="stroke:#000000;stroke-width:0.8;" x="655.662087" xlink:href="#mf26e96a794" y="499.68"/>
      </g>
     </g>
     <g id="text_22">
      <!-- 50 -->
      <g transform="translate(649.299587 514.278437)scale(0.1 -0.1)">
       <use xlink:href="#DejaVuSans-53"/>
       <use x="63.623047" xlink:href="#DejaVuSans-48"/>
      </g>
     </g>
    </g>
    <g id="xtick_16">
     <g id="line2d_24">
      <g>
       <use style="stroke:#000000;stroke-width:0.8;" x="701.777789" xlink:href="#mf26e96a794" y="499.68"/>
      </g>
     </g>
     <g id="text_23">
      <!-- 60 -->
      <g transform="translate(695.415289 514.278437)scale(0.1 -0.1)">
       <use xlink:href="#DejaVuSans-54"/>
       <use x="63.623047" xlink:href="#DejaVuSans-48"/>
      </g>
     </g>
    </g>
   </g>
   <g id="matplotlib.axis_4">
    <g id="ytick_8">
     <g id="line2d_25">
      <g>
       <use style="stroke:#000000;stroke-width:0.8;" x="411.248864" xlink:href="#md35f00f346" y="414.629808"/>
      </g>
     </g>
     <g id="text_24">
      <!-- 22000 -->
      <g transform="translate(372.436364 418.429027)scale(0.1 -0.1)">
       <use xlink:href="#DejaVuSans-50"/>
       <use x="63.623047" xlink:href="#DejaVuSans-50"/>
       <use x="127.246094" xlink:href="#DejaVuSans-48"/>
       <use x="190.869141" xlink:href="#DejaVuSans-48"/>
       <use x="254.492188" xlink:href="#DejaVuSans-48"/>
      </g>
     </g>
    </g>
    <g id="ytick_9">
     <g id="line2d_26">
      <g>
       <use style="stroke:#000000;stroke-width:0.8;" x="411.248864" xlink:href="#md35f00f346" y="326.931377"/>
      </g>
     </g>
     <g id="text_25">
      <!-- 24000 -->
      <g transform="translate(372.436364 330.730596)scale(0.1 -0.1)">
       <use xlink:href="#DejaVuSans-50"/>
       <use x="63.623047" xlink:href="#DejaVuSans-52"/>
       <use x="127.246094" xlink:href="#DejaVuSans-48"/>
       <use x="190.869141" xlink:href="#DejaVuSans-48"/>
       <use x="254.492188" xlink:href="#DejaVuSans-48"/>
      </g>
     </g>
    </g>
    <g id="ytick_10">
     <g id="line2d_27">
      <g>
       <use style="stroke:#000000;stroke-width:0.8;" x="411.248864" xlink:href="#md35f00f346" y="239.232947"/>
      </g>
     </g>
     <g id="text_26">
      <!-- 26000 -->
      <g transform="translate(372.436364 243.032166)scale(0.1 -0.1)">
       <use xlink:href="#DejaVuSans-50"/>
       <use x="63.623047" xlink:href="#DejaVuSans-54"/>
       <use x="127.246094" xlink:href="#DejaVuSans-48"/>
       <use x="190.869141" xlink:href="#DejaVuSans-48"/>
       <use x="254.492188" xlink:href="#DejaVuSans-48"/>
      </g>
     </g>
    </g>
    <g id="ytick_11">
     <g id="line2d_28">
      <g>
       <use style="stroke:#000000;stroke-width:0.8;" x="411.248864" xlink:href="#md35f00f346" y="151.534516"/>
      </g>
     </g>
     <g id="text_27">
      <!-- 28000 -->
      <g transform="translate(372.436364 155.333735)scale(0.1 -0.1)">
       <use xlink:href="#DejaVuSans-50"/>
       <use x="63.623047" xlink:href="#DejaVuSans-56"/>
       <use x="127.246094" xlink:href="#DejaVuSans-48"/>
       <use x="190.869141" xlink:href="#DejaVuSans-48"/>
       <use x="254.492188" xlink:href="#DejaVuSans-48"/>
      </g>
     </g>
    </g>
   </g>
   <g id="line2d_29">
    <path clip-path="url(#p191f403530)" d="M 425.083574 84.567273 
L 429.695145 127.645621 
L 434.306715 128.914393 
L 438.918285 135.820703 
L 443.529855 159.597112 
L 448.141426 168.934933 
L 452.752996 170.203705 
L 457.364566 177.110015 
L 461.976136 200.886424 
L 466.587707 209.964122 
L 471.199277 211.232893 
L 475.810847 218.139203 
L 480.422417 241.915613 
L 485.033988 245.505777 
L 489.645558 246.774549 
L 494.257128 253.680859 
L 498.868698 277.457268 
L 503.480269 278.726039 
L 508.091839 288.110681 
L 512.703409 292.023882 
L 517.314979 305.05139 
L 521.92655 309.019824 
L 526.53812 310.288596 
L 531.14969 319.673237 
L 535.76126 323.586438 
L 540.372831 336.613946 
L 544.984401 337.882718 
L 549.595971 347.267359 
L 554.207541 351.18056 
L 558.819112 358.759586 
L 563.430682 360.028358 
L 568.042252 369.412999 
L 572.653822 373.3262 
L 577.265393 374.594971 
L 581.876963 383.979613 
L 586.488533 386.625537 
L 591.100103 387.894308 
L 595.711674 397.278949 
L 600.323244 401.130377 
L 604.934814 402.399148 
L 609.546384 411.78379 
L 614.157955 413.534855 
L 618.769525 414.803626 
L 623.381095 424.188268 
L 627.992665 426.830153 
L 632.604236 430.339836 
L 637.215806 433.306373 
L 641.827376 435.948259 
L 646.438946 439.457942 
L 651.050517 442.099827 
L 655.662087 445.248171 
L 660.273657 447.890056 
L 664.885227 453.140547 
L 669.496798 455.782433 
L 674.108368 455.82681 
L 678.719938 458.468695 
L 683.331508 476.713645 
L 687.943079 479.35553 
L 692.554649 479.421312 
L 697.166219 479.654956 
L 701.777789 479.912727 
" style="fill:none;stroke:#ff0000;stroke-linecap:square;stroke-width:1.5;"/>
   </g>
   <g id="patch_8">
    <path d="M 411.248864 499.68 
L 411.248864 64.8 
" style="fill:none;stroke:#000000;stroke-linecap:square;stroke-linejoin:miter;stroke-width:0.8;"/>
   </g>
   <g id="patch_9">
    <path d="M 715.6125 499.68 
L 715.6125 64.8 
" style="fill:none;stroke:#000000;stroke-linecap:square;stroke-linejoin:miter;stroke-width:0.8;"/>
   </g>
   <g id="patch_10">
    <path d="M 411.248864 499.68 
L 715.6125 499.68 
" style="fill:none;stroke:#000000;stroke-linecap:square;stroke-linejoin:miter;stroke-width:0.8;"/>
   </g>
   <g id="patch_11">
    <path d="M 411.248864 64.8 
L 715.6125 64.8 
" style="fill:none;stroke:#000000;stroke-linecap:square;stroke-linejoin:miter;stroke-width:0.8;"/>
   </g>
  </g>
  <g id="text_28">
   <!-- Solução Final 5 -->
   <g transform="translate(310.064062 17.91875)scale(0.14 -0.14)">
    <defs>
     <path d="M 59.90625 70.609375 
L 59.90625 55.171875 
Q 53.90625 57.859375 48.1875 59.21875 
Q 42.484375 60.59375 37.40625 60.59375 
Q 30.671875 60.59375 27.4375 58.734375 
Q 24.21875 56.890625 24.21875 52.984375 
Q 24.21875 50.046875 26.390625 48.40625 
Q 28.5625 46.78125 34.28125 45.609375 
L 42.28125 44 
Q 54.4375 41.546875 59.5625 36.5625 
Q 64.703125 31.59375 64.703125 22.40625 
Q 64.703125 10.359375 57.546875 4.46875 
Q 50.390625 -1.421875 35.6875 -1.421875 
Q 28.765625 -1.421875 21.78125 -0.09375 
Q 14.796875 1.21875 7.8125 3.8125 
L 7.8125 19.671875 
Q 14.796875 15.96875 21.3125 14.078125 
Q 27.828125 12.203125 33.890625 12.203125 
Q 40.046875 12.203125 43.3125 14.25 
Q 46.578125 16.3125 46.578125 20.125 
Q 46.578125 23.53125 44.359375 25.390625 
Q 42.140625 27.25 35.5 28.71875 
L 28.21875 30.328125 
Q 17.28125 32.671875 12.21875 37.796875 
Q 7.171875 42.921875 7.171875 51.609375 
Q 7.171875 62.5 14.203125 68.359375 
Q 21.234375 74.21875 34.421875 74.21875 
Q 40.4375 74.21875 46.78125 73.3125 
Q 53.125 72.40625 59.90625 70.609375 
z
" id="DejaVuSans-Bold-83"/>
     <path d="M 34.421875 43.5 
Q 28.609375 43.5 25.5625 39.328125 
Q 22.515625 35.15625 22.515625 27.296875 
Q 22.515625 19.4375 25.5625 15.25 
Q 28.609375 11.078125 34.421875 11.078125 
Q 40.140625 11.078125 43.15625 15.25 
Q 46.1875 19.4375 46.1875 27.296875 
Q 46.1875 35.15625 43.15625 39.328125 
Q 40.140625 43.5 34.421875 43.5 
z
M 34.421875 56 
Q 48.53125 56 56.46875 48.375 
Q 64.40625 40.765625 64.40625 27.296875 
Q 64.40625 13.8125 56.46875 6.1875 
Q 48.53125 -1.421875 34.421875 -1.421875 
Q 20.265625 -1.421875 12.28125 6.1875 
Q 4.296875 13.8125 4.296875 27.296875 
Q 4.296875 40.765625 12.28125 48.375 
Q 20.265625 56 34.421875 56 
z
" id="DejaVuSans-Bold-111"/>
     <path d="M 8.40625 75.984375 
L 25.875 75.984375 
L 25.875 0 
L 8.40625 0 
z
" id="DejaVuSans-Bold-108"/>
     <path d="M 7.8125 21.296875 
L 7.8125 54.6875 
L 25.390625 54.6875 
L 25.390625 49.21875 
Q 25.390625 44.78125 25.34375 38.0625 
Q 25.296875 31.34375 25.296875 29.109375 
Q 25.296875 22.515625 25.640625 19.609375 
Q 25.984375 16.703125 26.8125 15.375 
Q 27.875 13.671875 29.609375 12.734375 
Q 31.34375 11.8125 33.59375 11.8125 
Q 39.0625 11.8125 42.1875 16.015625 
Q 45.3125 20.21875 45.3125 27.6875 
L 45.3125 54.6875 
L 62.796875 54.6875 
L 62.796875 0 
L 45.3125 0 
L 45.3125 7.90625 
Q 41.359375 3.125 36.9375 0.84375 
Q 32.515625 -1.421875 27.203125 -1.421875 
Q 17.71875 -1.421875 12.765625 4.390625 
Q 7.8125 10.203125 7.8125 21.296875 
z
" id="DejaVuSans-Bold-117"/>
     <path d="M 52.59375 52.984375 
L 52.59375 38.71875 
Q 49.03125 41.15625 45.4375 42.328125 
Q 41.84375 43.5 37.984375 43.5 
Q 30.671875 43.5 26.59375 39.234375 
Q 22.515625 34.96875 22.515625 27.296875 
Q 22.515625 19.625 26.59375 15.34375 
Q 30.671875 11.078125 37.984375 11.078125 
Q 42.09375 11.078125 45.78125 12.296875 
Q 49.46875 13.53125 52.59375 15.921875 
L 52.59375 1.609375 
Q 48.484375 0.09375 44.265625 -0.65625 
Q 40.046875 -1.421875 35.796875 -1.421875 
Q 21 -1.421875 12.640625 6.171875 
Q 4.296875 13.765625 4.296875 27.296875 
Q 4.296875 40.828125 12.640625 48.40625 
Q 21 56 35.796875 56 
Q 40.09375 56 44.265625 55.25 
Q 48.4375 54.5 52.59375 52.984375 
z
M 38.375 0 
Q 41.21875 -3.03125 42.546875 -5.609375 
Q 43.890625 -8.203125 43.890625 -10.5 
Q 43.890625 -15.140625 40.890625 -17.359375 
Q 37.890625 -19.578125 31.6875 -19.578125 
Q 29.34375 -19.578125 26.84375 -19.265625 
Q 24.359375 -18.953125 21.828125 -18.3125 
L 21.78125 -10.890625 
Q 24.21875 -11.671875 26.234375 -12.03125 
Q 28.265625 -12.40625 29.890625 -12.40625 
Q 32.71875 -12.40625 34.296875 -11.28125 
Q 35.890625 -10.15625 35.890625 -8.203125 
Q 35.890625 -6.9375 34.84375 -4.9375 
Q 33.796875 -2.9375 31.59375 0 
z
" id="DejaVuSans-Bold-231"/>
     <path d="M 32.90625 24.609375 
Q 27.4375 24.609375 24.671875 22.75 
Q 21.921875 20.90625 21.921875 17.28125 
Q 21.921875 13.96875 24.140625 12.078125 
Q 26.375 10.203125 30.328125 10.203125 
Q 35.25 10.203125 38.625 13.734375 
Q 42 17.28125 42 22.609375 
L 42 24.609375 
z
M 59.625 31.203125 
L 59.625 0 
L 42 0 
L 42 8.109375 
Q 38.484375 3.125 34.078125 0.84375 
Q 29.6875 -1.421875 23.390625 -1.421875 
Q 14.890625 -1.421875 9.59375 3.53125 
Q 4.296875 8.5 4.296875 16.40625 
Q 4.296875 26.03125 10.90625 30.515625 
Q 17.53125 35.015625 31.6875 35.015625 
L 42 35.015625 
L 42 36.375 
Q 42 40.53125 38.71875 42.453125 
Q 35.453125 44.390625 28.515625 44.390625 
Q 22.90625 44.390625 18.0625 43.265625 
Q 13.234375 42.140625 9.078125 39.890625 
L 9.078125 53.21875 
Q 14.703125 54.59375 20.359375 55.296875 
Q 26.03125 56 31.6875 56 
Q 46.484375 56 53.046875 50.171875 
Q 59.625 44.34375 59.625 31.203125 
z
M 34.1875 66.609375 
L 31.5 68.40625 
Q 31.296875 68.5 31 68.703125 
Q 28.71875 70.21875 27.484375 70.21875 
Q 25.734375 70.21875 24.796875 68.703125 
Q 23.875 67.1875 23.875 64.3125 
L 23.875 63.921875 
L 17.09375 63.921875 
Q 17.09375 70.5625 19.609375 74.171875 
Q 22.125 77.78125 26.65625 77.78125 
Q 28.421875 77.78125 30.203125 77.125 
Q 31.984375 76.46875 33.984375 75 
L 36.96875 72.90625 
Q 38.03125 72.171875 38.9375 71.78125 
Q 39.84375 71.390625 40.578125 71.390625 
Q 42.328125 71.390625 43.296875 72.953125 
Q 44.28125 74.515625 44.28125 77.296875 
L 44.28125 77.6875 
L 51.078125 77.6875 
Q 51.078125 71.046875 48.5625 67.421875 
Q 46.046875 63.8125 41.5 63.8125 
Q 39.75 63.8125 38.109375 64.390625 
Q 36.46875 64.984375 34.1875 66.609375 
z
" id="DejaVuSans-Bold-227"/>
     <path id="DejaVuSans-Bold-32"/>
     <path d="M 9.1875 72.90625 
L 59.90625 72.90625 
L 59.90625 58.6875 
L 27.984375 58.6875 
L 27.984375 45.125 
L 58.015625 45.125 
L 58.015625 30.90625 
L 27.984375 30.90625 
L 27.984375 0 
L 9.1875 0 
z
" id="DejaVuSans-Bold-70"/>
     <path d="M 8.40625 54.6875 
L 25.875 54.6875 
L 25.875 0 
L 8.40625 0 
z
M 8.40625 75.984375 
L 25.875 75.984375 
L 25.875 61.71875 
L 8.40625 61.71875 
z
" id="DejaVuSans-Bold-105"/>
     <path d="M 63.375 33.296875 
L 63.375 0 
L 45.796875 0 
L 45.796875 5.421875 
L 45.796875 25.484375 
Q 45.796875 32.5625 45.484375 35.25 
Q 45.171875 37.9375 44.390625 39.203125 
Q 43.359375 40.921875 41.59375 41.875 
Q 39.84375 42.828125 37.59375 42.828125 
Q 32.125 42.828125 29 38.59375 
Q 25.875 34.375 25.875 26.90625 
L 25.875 0 
L 8.40625 0 
L 8.40625 54.6875 
L 25.875 54.6875 
L 25.875 46.6875 
Q 29.828125 51.46875 34.265625 53.734375 
Q 38.71875 56 44.09375 56 
Q 53.5625 56 58.46875 50.1875 
Q 63.375 44.390625 63.375 33.296875 
z
" id="DejaVuSans-Bold-110"/>
     <path d="M 32.90625 24.609375 
Q 27.4375 24.609375 24.671875 22.75 
Q 21.921875 20.90625 21.921875 17.28125 
Q 21.921875 13.96875 24.140625 12.078125 
Q 26.375 10.203125 30.328125 10.203125 
Q 35.25 10.203125 38.625 13.734375 
Q 42 17.28125 42 22.609375 
L 42 24.609375 
z
M 59.625 31.203125 
L 59.625 0 
L 42 0 
L 42 8.109375 
Q 38.484375 3.125 34.078125 0.84375 
Q 29.6875 -1.421875 23.390625 -1.421875 
Q 14.890625 -1.421875 9.59375 3.53125 
Q 4.296875 8.5 4.296875 16.40625 
Q 4.296875 26.03125 10.90625 30.515625 
Q 17.53125 35.015625 31.6875 35.015625 
L 42 35.015625 
L 42 36.375 
Q 42 40.53125 38.71875 42.453125 
Q 35.453125 44.390625 28.515625 44.390625 
Q 22.90625 44.390625 18.0625 43.265625 
Q 13.234375 42.140625 9.078125 39.890625 
L 9.078125 53.21875 
Q 14.703125 54.59375 20.359375 55.296875 
Q 26.03125 56 31.6875 56 
Q 46.484375 56 53.046875 50.171875 
Q 59.625 44.34375 59.625 31.203125 
z
" id="DejaVuSans-Bold-97"/>
     <path d="M 10.59375 72.90625 
L 57.328125 72.90625 
L 57.328125 59.078125 
L 25.59375 59.078125 
L 25.59375 47.796875 
Q 27.734375 48.390625 29.90625 48.703125 
Q 32.078125 49.03125 34.421875 49.03125 
Q 47.75 49.03125 55.171875 42.359375 
Q 62.59375 35.6875 62.59375 23.78125 
Q 62.59375 11.96875 54.515625 5.265625 
Q 46.4375 -1.421875 32.078125 -1.421875 
Q 25.875 -1.421875 19.796875 -0.21875 
Q 13.71875 0.984375 7.71875 3.421875 
L 7.71875 18.21875 
Q 13.671875 14.796875 19.015625 13.078125 
Q 24.359375 11.375 29.109375 11.375 
Q 35.9375 11.375 39.859375 14.71875 
Q 43.796875 18.0625 43.796875 23.78125 
Q 43.796875 29.546875 39.859375 32.859375 
Q 35.9375 36.1875 29.109375 36.1875 
Q 25.046875 36.1875 20.453125 35.125 
Q 15.875 34.078125 10.59375 31.890625 
z
" id="DejaVuSans-Bold-53"/>
    </defs>
    <use xlink:href="#DejaVuSans-Bold-83"/>
    <use x="72.021484" xlink:href="#DejaVuSans-Bold-111"/>
    <use x="140.722656" xlink:href="#DejaVuSans-Bold-108"/>
    <use x="175" xlink:href="#DejaVuSans-Bold-117"/>
    <use x="246.191406" xlink:href="#DejaVuSans-Bold-231"/>
    <use x="305.46875" xlink:href="#DejaVuSans-Bold-227"/>
    <use x="372.949219" xlink:href="#DejaVuSans-Bold-111"/>
    <use x="441.650391" xlink:href="#DejaVuSans-Bold-32"/>
    <use x="476.464844" xlink:href="#DejaVuSans-Bold-70"/>
    <use x="544.775391" xlink:href="#DejaVuSans-Bold-105"/>
    <use x="579.052734" xlink:href="#DejaVuSans-Bold-110"/>
    <use x="650.244141" xlink:href="#DejaVuSans-Bold-97"/>
    <use x="717.724609" xlink:href="#DejaVuSans-Bold-108"/>
    <use x="752.001953" xlink:href="#DejaVuSans-Bold-32"/>
    <use x="786.816406" xlink:href="#DejaVuSans-Bold-53"/>
   </g>
   <!-- Distância Total 20511.20 -->
   <g transform="translate(272.557187 33.595688)scale(0.14 -0.14)">
    <defs>
     <path d="M 27.984375 58.6875 
L 27.984375 14.203125 
L 34.71875 14.203125 
Q 46.234375 14.203125 52.3125 19.921875 
Q 58.40625 25.640625 58.40625 36.53125 
Q 58.40625 47.359375 52.34375 53.015625 
Q 46.296875 58.6875 34.71875 58.6875 
z
M 9.1875 72.90625 
L 29 72.90625 
Q 45.609375 72.90625 53.734375 70.53125 
Q 61.859375 68.171875 67.671875 62.5 
Q 72.796875 57.5625 75.28125 51.109375 
Q 77.78125 44.671875 77.78125 36.53125 
Q 77.78125 28.265625 75.28125 21.796875 
Q 72.796875 15.328125 67.671875 10.40625 
Q 61.8125 4.734375 53.609375 2.359375 
Q 45.40625 0 29 0 
L 9.1875 0 
z
" id="DejaVuSans-Bold-68"/>
     <path d="M 51.125 52.984375 
L 51.125 39.703125 
Q 45.515625 42.046875 40.28125 43.21875 
Q 35.0625 44.390625 30.421875 44.390625 
Q 25.4375 44.390625 23.015625 43.140625 
Q 20.609375 41.890625 20.609375 39.3125 
Q 20.609375 37.203125 22.4375 36.078125 
Q 24.265625 34.96875 29 34.421875 
L 32.078125 33.984375 
Q 45.515625 32.28125 50.140625 28.375 
Q 54.78125 24.46875 54.78125 16.109375 
Q 54.78125 7.375 48.328125 2.96875 
Q 41.890625 -1.421875 29.109375 -1.421875 
Q 23.6875 -1.421875 17.890625 -0.5625 
Q 12.109375 0.296875 6 2 
L 6 15.28125 
Q 11.234375 12.75 16.71875 11.46875 
Q 22.21875 10.203125 27.875 10.203125 
Q 33.015625 10.203125 35.59375 11.609375 
Q 38.1875 13.03125 38.1875 15.828125 
Q 38.1875 18.171875 36.40625 19.3125 
Q 34.625 20.453125 29.296875 21.09375 
L 26.21875 21.484375 
Q 14.546875 22.953125 9.859375 26.90625 
Q 5.171875 30.859375 5.171875 38.921875 
Q 5.171875 47.609375 11.125 51.796875 
Q 17.09375 56 29.390625 56 
Q 34.234375 56 39.546875 55.265625 
Q 44.875 54.546875 51.125 52.984375 
z
" id="DejaVuSans-Bold-115"/>
     <path d="M 27.484375 70.21875 
L 27.484375 54.6875 
L 45.515625 54.6875 
L 45.515625 42.1875 
L 27.484375 42.1875 
L 27.484375 19 
Q 27.484375 15.1875 29 13.84375 
Q 30.515625 12.5 35.015625 12.5 
L 44 12.5 
L 44 0 
L 29 0 
Q 18.65625 0 14.328125 4.3125 
Q 10.015625 8.640625 10.015625 19 
L 10.015625 42.1875 
L 1.3125 42.1875 
L 1.3125 54.6875 
L 10.015625 54.6875 
L 10.015625 70.21875 
z
" id="DejaVuSans-Bold-116"/>
     <path d="M 32.90625 24.609375 
Q 27.4375 24.609375 24.671875 22.75 
Q 21.921875 20.90625 21.921875 17.28125 
Q 21.921875 13.96875 24.140625 12.078125 
Q 26.375 10.203125 30.328125 10.203125 
Q 35.25 10.203125 38.625 13.734375 
Q 42 17.28125 42 22.609375 
L 42 24.609375 
z
M 59.625 31.203125 
L 59.625 0 
L 42 0 
L 42 8.109375 
Q 38.484375 3.125 34.078125 0.84375 
Q 29.6875 -1.421875 23.390625 -1.421875 
Q 14.890625 -1.421875 9.59375 3.53125 
Q 4.296875 8.5 4.296875 16.40625 
Q 4.296875 26.03125 10.90625 30.515625 
Q 17.53125 35.015625 31.6875 35.015625 
L 42 35.015625 
L 42 36.375 
Q 42 40.53125 38.71875 42.453125 
Q 35.453125 44.390625 28.515625 44.390625 
Q 22.90625 44.390625 18.0625 43.265625 
Q 13.234375 42.140625 9.078125 39.890625 
L 9.078125 53.21875 
Q 14.703125 54.59375 20.359375 55.296875 
Q 26.03125 56 31.6875 56 
Q 46.484375 56 53.046875 50.171875 
Q 59.625 44.34375 59.625 31.203125 
z
M 28.171875 79.984375 
L 39.984375 79.984375 
L 52.484375 61.625 
L 43.796875 61.625 
L 34.078125 72.609375 
L 24.359375 61.625 
L 15.671875 61.625 
z
" id="DejaVuSans-Bold-226"/>
     <path d="M 52.59375 52.984375 
L 52.59375 38.71875 
Q 49.03125 41.15625 45.4375 42.328125 
Q 41.84375 43.5 37.984375 43.5 
Q 30.671875 43.5 26.59375 39.234375 
Q 22.515625 34.96875 22.515625 27.296875 
Q 22.515625 19.625 26.59375 15.34375 
Q 30.671875 11.078125 37.984375 11.078125 
Q 42.09375 11.078125 45.78125 12.296875 
Q 49.46875 13.53125 52.59375 15.921875 
L 52.59375 1.609375 
Q 48.484375 0.09375 44.265625 -0.65625 
Q 40.046875 -1.421875 35.796875 -1.421875 
Q 21 -1.421875 12.640625 6.171875 
Q 4.296875 13.765625 4.296875 27.296875 
Q 4.296875 40.828125 12.640625 48.40625 
Q 21 56 35.796875 56 
Q 40.09375 56 44.265625 55.25 
Q 48.4375 54.5 52.59375 52.984375 
z
" id="DejaVuSans-Bold-99"/>
     <path d="M 0.484375 72.90625 
L 67.671875 72.90625 
L 67.671875 58.6875 
L 43.5 58.6875 
L 43.5 0 
L 24.703125 0 
L 24.703125 58.6875 
L 0.484375 58.6875 
z
" id="DejaVuSans-Bold-84"/>
     <path d="M 28.8125 13.8125 
L 60.890625 13.8125 
L 60.890625 0 
L 7.90625 0 
L 7.90625 13.8125 
L 34.515625 37.3125 
Q 38.09375 40.53125 39.796875 43.609375 
Q 41.5 46.6875 41.5 50 
Q 41.5 55.125 38.0625 58.25 
Q 34.625 61.375 28.90625 61.375 
Q 24.515625 61.375 19.28125 59.5 
Q 14.0625 57.625 8.109375 53.90625 
L 8.109375 69.921875 
Q 14.453125 72.015625 20.65625 73.109375 
Q 26.859375 74.21875 32.8125 74.21875 
Q 45.90625 74.21875 53.15625 68.453125 
Q 60.40625 62.703125 60.40625 52.390625 
Q 60.40625 46.4375 57.328125 41.28125 
Q 54.25 36.140625 44.390625 27.484375 
z
" id="DejaVuSans-Bold-50"/>
     <path d="M 46 36.53125 
Q 46 50.203125 43.4375 55.78125 
Q 40.875 61.375 34.8125 61.375 
Q 28.765625 61.375 26.171875 55.78125 
Q 23.578125 50.203125 23.578125 36.53125 
Q 23.578125 22.703125 26.171875 17.03125 
Q 28.765625 11.375 34.8125 11.375 
Q 40.828125 11.375 43.40625 17.03125 
Q 46 22.703125 46 36.53125 
z
M 64.796875 36.375 
Q 64.796875 18.265625 56.984375 8.421875 
Q 49.171875 -1.421875 34.8125 -1.421875 
Q 20.40625 -1.421875 12.59375 8.421875 
Q 4.78125 18.265625 4.78125 36.375 
Q 4.78125 54.546875 12.59375 64.375 
Q 20.40625 74.21875 34.8125 74.21875 
Q 49.171875 74.21875 56.984375 64.375 
Q 64.796875 54.546875 64.796875 36.375 
z
" id="DejaVuSans-Bold-48"/>
     <path d="M 11.71875 12.984375 
L 28.328125 12.984375 
L 28.328125 60.109375 
L 11.28125 56.59375 
L 11.28125 69.390625 
L 28.21875 72.90625 
L 46.09375 72.90625 
L 46.09375 12.984375 
L 62.703125 12.984375 
L 62.703125 0 
L 11.71875 0 
z
" id="DejaVuSans-Bold-49"/>
     <path d="M 10.203125 18.890625 
L 27.78125 18.890625 
L 27.78125 0 
L 10.203125 0 
z
" id="DejaVuSans-Bold-46"/>
    </defs>
    <use xlink:href="#DejaVuSans-Bold-68"/>
    <use x="83.007812" xlink:href="#DejaVuSans-Bold-105"/>
    <use x="117.285156" xlink:href="#DejaVuSans-Bold-115"/>
    <use x="176.806641" xlink:href="#DejaVuSans-Bold-116"/>
    <use x="224.609375" xlink:href="#DejaVuSans-Bold-226"/>
    <use x="292.089844" xlink:href="#DejaVuSans-Bold-110"/>
    <use x="363.28125" xlink:href="#DejaVuSans-Bold-99"/>
    <use x="422.558594" xlink:href="#DejaVuSans-Bold-105"/>
    <use x="456.835938" xlink:href="#DejaVuSans-Bold-97"/>
    <use x="524.316406" xlink:href="#DejaVuSans-Bold-32"/>
    <use x="559.130859" xlink:href="#DejaVuSans-Bold-84"/>
    <use x="614.09375" xlink:href="#DejaVuSans-Bold-111"/>
    <use x="682.794922" xlink:href="#DejaVuSans-Bold-116"/>
    <use x="730.597656" xlink:href="#DejaVuSans-Bold-97"/>
    <use x="798.078125" xlink:href="#DejaVuSans-Bold-108"/>
    <use x="832.355469" xlink:href="#DejaVuSans-Bold-32"/>
    <use x="867.169922" xlink:href="#DejaVuSans-Bold-50"/>
    <use x="936.75" xlink:href="#DejaVuSans-Bold-48"/>
    <use x="1006.330078" xlink:href="#DejaVuSans-Bold-53"/>
    <use x="1075.910156" xlink:href="#DejaVuSans-Bold-49"/>
    <use x="1145.490234" xlink:href="#DejaVuSans-Bold-49"/>
    <use x="1215.070312" xlink:href="#DejaVuSans-Bold-46"/>
    <use x="1253.058594" xlink:href="#DejaVuSans-Bold-50"/>
    <use x="1322.638672" xlink:href="#DejaVuSans-Bold-48"/>
   </g>
   <!-- 61 iterações -->
   <g transform="translate(321.2925 49.36975)scale(0.14 -0.14)">
    <defs>
     <path d="M 36.1875 35.984375 
Q 31.25 35.984375 28.78125 32.78125 
Q 26.3125 29.59375 26.3125 23.1875 
Q 26.3125 16.796875 28.78125 13.59375 
Q 31.25 10.40625 36.1875 10.40625 
Q 41.15625 10.40625 43.625 13.59375 
Q 46.09375 16.796875 46.09375 23.1875 
Q 46.09375 29.59375 43.625 32.78125 
Q 41.15625 35.984375 36.1875 35.984375 
z
M 59.421875 71 
L 59.421875 57.515625 
Q 54.78125 59.71875 50.671875 60.765625 
Q 46.578125 61.8125 42.671875 61.8125 
Q 34.28125 61.8125 29.59375 57.140625 
Q 24.90625 52.484375 24.125 43.3125 
Q 27.34375 45.703125 31.09375 46.890625 
Q 34.859375 48.09375 39.3125 48.09375 
Q 50.484375 48.09375 57.34375 41.546875 
Q 64.203125 35.015625 64.203125 24.421875 
Q 64.203125 12.703125 56.53125 5.640625 
Q 48.875 -1.421875 35.984375 -1.421875 
Q 21.78125 -1.421875 13.984375 8.171875 
Q 6.203125 17.78125 6.203125 35.40625 
Q 6.203125 53.46875 15.3125 63.796875 
Q 24.421875 74.125 40.28125 74.125 
Q 45.3125 74.125 50.046875 73.34375 
Q 54.78125 72.5625 59.421875 71 
z
" id="DejaVuSans-Bold-54"/>
     <path d="M 62.984375 27.484375 
L 62.984375 22.515625 
L 22.125 22.515625 
Q 22.75 16.359375 26.5625 13.28125 
Q 30.375 10.203125 37.203125 10.203125 
Q 42.71875 10.203125 48.5 11.84375 
Q 54.296875 13.484375 60.40625 16.796875 
L 60.40625 3.328125 
Q 54.203125 0.984375 48 -0.21875 
Q 41.796875 -1.421875 35.59375 -1.421875 
Q 20.75 -1.421875 12.515625 6.125 
Q 4.296875 13.671875 4.296875 27.296875 
Q 4.296875 40.671875 12.375 48.328125 
Q 20.453125 56 34.625 56 
Q 47.515625 56 55.25 48.234375 
Q 62.984375 40.484375 62.984375 27.484375 
z
M 45.015625 33.296875 
Q 45.015625 38.28125 42.109375 41.328125 
Q 39.203125 44.390625 34.515625 44.390625 
Q 29.4375 44.390625 26.265625 41.53125 
Q 23.09375 38.671875 22.3125 33.296875 
z
" id="DejaVuSans-Bold-101"/>
     <path d="M 49.03125 39.796875 
Q 46.734375 40.875 44.453125 41.375 
Q 42.1875 41.890625 39.890625 41.890625 
Q 33.15625 41.890625 29.515625 37.5625 
Q 25.875 33.25 25.875 25.203125 
L 25.875 0 
L 8.40625 0 
L 8.40625 54.6875 
L 25.875 54.6875 
L 25.875 45.703125 
Q 29.25 51.078125 33.609375 53.53125 
Q 37.984375 56 44.09375 56 
Q 44.96875 56 45.984375 55.921875 
Q 47.015625 55.859375 48.96875 55.609375 
z
" id="DejaVuSans-Bold-114"/>
     <path d="M 34.421875 43.5 
Q 28.609375 43.5 25.5625 39.328125 
Q 22.515625 35.15625 22.515625 27.296875 
Q 22.515625 19.4375 25.5625 15.25 
Q 28.609375 11.078125 34.421875 11.078125 
Q 40.140625 11.078125 43.15625 15.25 
Q 46.1875 19.4375 46.1875 27.296875 
Q 46.1875 35.15625 43.15625 39.328125 
Q 40.140625 43.5 34.421875 43.5 
z
M 34.421875 56 
Q 48.53125 56 56.46875 48.375 
Q 64.40625 40.765625 64.40625 27.296875 
Q 64.40625 13.8125 56.46875 6.1875 
Q 48.53125 -1.421875 34.421875 -1.421875 
Q 20.265625 -1.421875 12.28125 6.1875 
Q 4.296875 13.8125 4.296875 27.296875 
Q 4.296875 40.765625 12.28125 48.375 
Q 20.265625 56 34.421875 56 
z
M 34.375 66.609375 
L 31.6875 68.40625 
Q 31.5 68.5 31.203125 68.703125 
Q 28.90625 70.21875 27.6875 70.21875 
Q 25.921875 70.21875 25 68.703125 
Q 24.078125 67.1875 24.078125 64.3125 
L 24.078125 63.921875 
L 17.28125 63.921875 
Q 17.28125 70.5625 19.796875 74.171875 
Q 22.3125 77.78125 26.859375 77.78125 
Q 28.609375 77.78125 30.390625 77.125 
Q 32.171875 76.46875 34.1875 75 
L 37.15625 72.90625 
Q 38.234375 72.171875 39.140625 71.78125 
Q 40.046875 71.390625 40.765625 71.390625 
Q 42.53125 71.390625 43.5 72.953125 
Q 44.484375 74.515625 44.484375 77.296875 
L 44.484375 77.6875 
L 51.265625 77.6875 
Q 51.265625 71.046875 48.75 67.421875 
Q 46.234375 63.8125 41.703125 63.8125 
Q 39.9375 63.8125 38.296875 64.390625 
Q 36.671875 64.984375 34.375 66.609375 
z
" id="DejaVuSans-Bold-245"/>
    </defs>
    <use xlink:href="#DejaVuSans-Bold-54"/>
    <use x="69.580078" xlink:href="#DejaVuSans-Bold-49"/>
    <use x="139.160156" xlink:href="#DejaVuSans-Bold-32"/>
    <use x="173.974609" xlink:href="#DejaVuSans-Bold-105"/>
    <use x="208.251953" xlink:href="#DejaVuSans-Bold-116"/>
    <use x="256.054688" xlink:href="#DejaVuSans-Bold-101"/>
    <use x="323.876953" xlink:href="#DejaVuSans-Bold-114"/>
    <use x="373.193359" xlink:href="#DejaVuSans-Bold-97"/>
    <use x="440.673828" xlink:href="#DejaVuSans-Bold-231"/>
    <use x="499.951172" xlink:href="#DejaVuSans-Bold-245"/>
    <use x="568.652344" xlink:href="#DejaVuSans-Bold-101"/>
    <use x="636.474609" xlink:href="#DejaVuSans-Bold-115"/>
   </g>
  </g>
 </g>
 <defs>
  <clipPath id="p1db8480f23">
   <rect height="434.88" width="304.363636" x="46.0125" y="64.8"/>
  </clipPath>
  <clipPath id="p191f403530">
   <rect height="434.88" width="304.363636" x="411.248864" y="64.8"/>
  </clipPath>
 </defs>
</svg>
